<svg width="19" height="14" viewBox="0 0 19 14" fill="none" xmlns="http://www.w3.org/2000/svg">
<path d="M17.2144 5.61608H4.89019L7.83817 2.40652C7.96096 2.2774 8.05891 2.12295 8.12629 1.95218C8.19367 1.78141 8.22913 1.59774 8.23061 1.41188C8.2321 1.22603 8.19957 1.04171 8.13492 0.869694C8.07028 0.697673 7.97482 0.541392 7.85411 0.409968C7.73339 0.278545 7.58985 0.174611 7.43185 0.104232C7.27385 0.0338528 7.10456 -0.00156217 6.93385 5.28493e-05C6.76314 0.00166787 6.59444 0.0402809 6.43759 0.113639C6.28073 0.186997 6.13887 0.293631 6.02027 0.427318L0.877706 6.0262C0.757979 6.15622 0.662988 6.31068 0.598175 6.48073C0.533362 6.65079 0.5 6.83309 0.5 7.0172C0.5 7.20131 0.533362 7.38361 0.598175 7.55367C0.662988 7.72372 0.757979 7.87818 0.877706 8.0082L6.02027 13.6071C6.26275 13.8621 6.5875 14.0031 6.92459 13.9999C7.26169 13.9968 7.58414 13.8496 7.82251 13.59C8.06088 13.3305 8.19609 12.9794 8.19902 12.6124C8.20195 12.2454 8.07236 11.8919 7.83817 11.6279L4.89019 8.41552H17.2144C17.5553 8.41552 17.8823 8.26805 18.1234 8.00555C18.3645 7.74305 18.5 7.38703 18.5 7.0158C18.5 6.64457 18.3645 6.28855 18.1234 6.02605C17.8823 5.76355 17.5553 5.61608 17.2144 5.61608Z" fill="#0B0B0B"/>
</svg>
