<svg width="170" height="170" viewBox="0 0 170 170" fill="none" xmlns="http://www.w3.org/2000/svg">
<path d="M14.0427 83.7276L13.9879 84.8182L5.7435 81.5087L5.82473 79.8907L14.3592 77.4236L14.3044 78.5142L12.7804 78.9543L12.5704 83.1371L14.0427 83.7276ZM8.79007 81.6136L11.6519 82.7665L11.8294 79.231L8.86649 80.0915C8.01311 80.337 7.38207 80.4615 6.73067 80.5129L6.7072 80.9803C7.35018 81.0967 7.96557 81.2838 8.79007 81.6136Z" fill="#17A500"/>
<path d="M15.0371 74.1368C14.7731 75.881 13.7407 76.7685 12.2339 76.5405L11.5101 76.4309L11.6663 75.3987L12.2714 75.4903C13.2681 75.6411 13.9464 75.0883 14.1116 73.9968C14.2804 72.8815 13.8808 72.1535 13.0384 72.026C12.5045 71.9452 11.9516 72.3106 11.5436 73.0013L10.6641 74.4824C10.0772 75.4738 9.15149 75.9769 8.16671 75.8279C6.79037 75.6196 6.13258 74.5127 6.37568 72.8261C6.63422 71.1176 7.66305 70.2538 9.16989 70.4818L9.89365 70.5913L9.73745 71.6236L9.13233 71.532C8.13568 71.3812 7.46094 71.9102 7.30114 72.9662C7.16039 73.9765 7.54521 74.6416 8.3283 74.7601C8.88595 74.8444 9.46437 74.4708 9.88956 73.7462L10.7036 72.3766C11.3215 71.3414 12.2508 70.8145 13.2 70.9582C14.6238 71.1736 15.3082 72.3452 15.0371 74.1368Z" fill="#17A500"/>
<path d="M15.9239 68.5099L15.6894 69.5272L7.50416 67.6397L7.73874 66.6224L15.9239 68.5099Z" fill="#17A500"/>
<path d="M17.3241 63.9906C16.805 65.6765 15.6526 66.4015 14.1961 65.953L13.4965 65.7375L13.8038 64.7398L14.3887 64.9199C15.352 65.2165 16.1047 64.7703 16.4296 63.7151C16.7616 62.6371 16.4741 61.858 15.6598 61.6073C15.1437 61.4483 14.5429 61.7279 14.0372 62.3507L12.9482 63.6853C12.221 64.5789 11.2311 64.9395 10.2792 64.6464C8.94882 64.2367 8.46207 63.0447 8.95207 61.4126C9.4606 59.7611 10.6059 59.0591 12.0624 59.5076L12.762 59.723L12.4548 60.7208L11.8699 60.5407C10.9065 60.244 10.1609 60.6674 9.84662 61.6881C9.55791 62.6664 9.84008 63.3811 10.597 63.6142C11.136 63.7802 11.7634 63.4962 12.2911 62.8426L13.2989 61.6085C14.0631 60.6761 15.0602 60.2926 15.9777 60.5751C17.3539 60.9989 17.8574 62.2588 17.3241 63.9906Z" fill="#17A500"/>
<path d="M20.0354 56.1144L19.5897 57.0584L11.9938 53.472L13.1363 51.0521C13.91 49.4136 15.1108 48.8659 16.4889 49.5166C17.791 50.1314 18.1703 51.2394 17.5407 52.6009L17.9748 52.8058C18.2924 52.1331 18.9826 51.7954 19.8965 51.8554L21.9504 52.0023L21.511 52.9892L19.6506 52.854C18.7042 52.7787 17.9826 53.1546 17.6342 53.8925L17.2141 54.7823L20.0354 56.1144ZM13.2859 52.9275L16.3677 54.3826L17.1157 52.7983C17.5615 51.8543 17.2323 51.0619 16.1906 50.57C15.2465 50.1243 14.4592 50.4426 13.9827 51.4518L13.2859 52.9275Z" fill="#17A500"/>
<path d="M25.4383 46.0936L22.9357 50.2597L15.735 45.9342L18.2376 41.7681L19.04 42.2501L17.075 45.5213L19.5129 46.9858L21.3667 43.8998L22.1691 44.3817L20.3153 47.4677L22.6709 48.8828L24.636 45.6117L25.4383 46.0936Z" fill="#17A500"/>
<path d="M28.1021 42.3608L27.4819 43.2005L21.4781 38.7659L19.9024 40.8991L19.1496 40.3429L22.914 35.2465L23.6669 35.8026L22.0984 37.9261L28.1021 42.3608Z" fill="#17A500"/>
<path d="M30.5607 39.1765L29.8258 39.9843L25.5584 32.1925L26.6485 30.9942L34.8082 34.5075L34.0734 35.3153L32.6166 34.6876L29.7983 37.7855L30.5607 39.1765ZM27.8453 34.2081L29.324 36.9159L31.7062 34.2974L28.8709 33.0807C28.0557 32.7285 27.4891 32.424 26.9533 32.0501L26.6384 32.3963C27.0612 32.8945 27.4178 33.4298 27.8453 34.2081Z" fill="#17A500"/>
<path d="M36.5143 32.9866L35.7523 33.7003L30.01 27.5696L30.772 26.8559L36.5143 32.9866Z" fill="#17A500"/>
<path d="M33.9944 23.9937L38.6874 29.7978L41.8414 27.2475L42.4299 27.9754L38.4641 31.182L33.1826 24.6501L33.9944 23.9937Z" fill="#17A500"/>
<path d="M47.9701 24.507C46.4647 25.4265 45.1211 25.2066 44.3267 23.906L43.9452 23.2813L44.8362 22.7371L45.1552 23.2594C45.6806 24.1196 46.5401 24.2837 47.4822 23.7082C48.4449 23.1203 48.7454 22.3461 48.3013 21.619C48.0199 21.1582 47.3845 20.9697 46.5932 21.1015L44.8934 21.3804C43.7568 21.5684 42.7762 21.183 42.257 20.333C41.5315 19.1451 41.9561 17.9295 43.4041 17.0311C44.8788 16.1304 46.2019 16.3629 46.9962 17.6635L47.3778 18.2882L46.4868 18.8323L46.1678 18.31C45.6424 17.4498 44.8034 17.2732 43.892 17.8299C43.0277 18.3718 42.7659 19.0942 43.1787 19.7701C43.4727 20.2514 44.1308 20.4541 44.9591 20.3138L46.5315 20.0565C47.7216 19.864 48.7226 20.2368 49.223 21.0561C49.9736 22.285 49.5165 23.5625 47.9701 24.507Z" fill="#17A500"/>
<path d="M54.2151 20.9096L53.2761 21.3659L50.0142 14.6523L47.6289 15.8113L47.2198 14.9694L52.9188 12.2005L53.3278 13.0424L50.9533 14.1961L54.2151 20.9096Z" fill="#17A500"/>
<path d="M60.9506 18.3021C58.6573 19.1235 56.652 18.0445 55.7415 15.5026C54.8351 12.9721 55.7034 10.8766 57.9967 10.0551C60.29 9.2337 62.2913 10.3014 63.1977 12.832C64.1081 15.3739 63.2439 17.4807 60.9506 18.3021ZM60.635 17.4209C62.2844 16.8301 62.8745 15.2039 62.1583 13.2043C61.4462 11.216 59.9617 10.3455 58.3123 10.9363C56.6629 11.5271 56.0687 13.142 56.7809 15.1304C57.4971 17.13 58.9856 18.0117 60.635 17.4209Z" fill="#17A500"/>
<path d="M66.7796 16.2981L65.7632 16.5366L63.8447 8.35862L66.4499 7.74742C68.214 7.33355 69.39 7.9328 69.7381 9.41652C70.067 10.8185 69.4355 11.8047 67.9779 12.159L68.0876 12.6263C68.8119 12.4564 69.5057 12.7867 70.0274 13.5394L71.1903 15.2387L70.1443 15.5088L69.0926 13.9683C68.5627 13.1805 67.8195 12.8495 67.025 13.0359L66.067 13.2606L66.7796 16.2981ZM65.0749 9.03143L65.8532 12.3493L67.5589 11.9492C68.5753 11.7107 68.9909 10.96 68.7277 9.83843C68.4893 8.82203 67.7502 8.40378 66.6637 8.65868L65.0749 9.03143Z" fill="#17A500"/>
<path d="M78.0039 14.3104L73.1831 14.9268L72.1179 6.59458L76.9386 5.97826L77.0573 6.9067L73.2721 7.39063L73.6328 10.2117L77.2037 9.75513L77.3224 10.6836L73.7515 11.1401L74.1 13.8659L77.8852 13.382L78.0039 14.3104Z" fill="#17A500"/>
<path d="M82.9957 14.017L81.9038 14.0002L84.9252 5.64584L86.545 5.67085L89.307 14.1145L88.2151 14.0976L87.7223 12.5899L83.5348 12.5252L82.9957 14.017ZM84.9261 8.69421L83.8732 11.5943L87.4128 11.649L86.4499 8.71774C86.1749 7.8734 86.0286 7.24706 85.9546 6.59784L85.4867 6.59062C85.3927 7.23724 85.227 7.85876 84.9261 8.69421Z" fill="#17A500"/>
<path d="M92.6087 14.6815C90.8564 14.478 89.9338 13.4768 90.1096 11.963L90.1941 11.2359L91.2311 11.3564L91.1605 11.9643C91.0442 12.9655 91.62 13.6244 92.7166 13.7517C93.8371 13.8819 94.5509 13.4574 94.6492 12.6111C94.7115 12.0747 94.3272 11.5347 93.6228 11.1509L92.1122 10.3231C91.1012 9.77077 90.5663 8.86301 90.6812 7.87366C90.8418 6.49095 91.9253 5.79531 93.6193 5.97999C95.3358 6.17935 96.2346 7.17772 96.0588 8.69154L95.9743 9.41865L94.9373 9.2982L95.0079 8.69029C95.1242 7.68902 94.5722 7.03296 93.5113 6.90974C92.4968 6.80398 91.8454 7.21155 91.754 7.99826C91.6889 8.55849 92.0824 9.12366 92.8212 9.52356L94.2181 10.2898C95.274 10.8716 95.8327 11.7821 95.7219 12.7357C95.5558 14.1661 94.4086 14.8905 92.6087 14.6815Z" fill="#17A500"/>
<path d="M98.1299 15.3478L97.1044 15.1522L98.6782 6.90093L99.7037 7.09654L98.1299 15.3478Z" fill="#17A500"/>
<path d="M102.802 16.6105C101.098 16.1555 100.33 15.0314 100.723 13.559L100.912 12.8517L101.92 13.121L101.763 13.7123C101.503 14.6862 101.977 15.4214 103.044 15.7061C104.134 15.997 104.901 15.6803 105.121 14.8571C105.26 14.3354 104.958 13.7455 104.317 13.2638L102.942 12.2261C102.021 11.5333 101.623 10.5577 101.88 9.59537C102.239 8.25046 103.412 7.71893 105.061 8.14679C106.731 8.59243 107.476 9.71035 107.083 11.1828L106.894 11.89L105.885 11.6208L106.043 11.0295C106.303 10.0556 105.852 9.32656 104.82 9.05113C103.831 8.79967 103.128 9.10869 102.924 9.8739C102.778 10.4188 103.086 11.035 103.759 11.5376L105.03 12.4979C105.991 13.2263 106.412 14.2081 106.164 15.1356C105.793 16.5269 104.553 17.0778 102.802 16.6105Z" fill="#17A500"/>
<path d="M110.712 19.0242L109.752 18.614L113.053 10.8898L115.514 11.9414C117.18 12.6535 117.772 13.8331 117.173 15.2345C116.607 16.5586 115.514 16.9789 114.13 16.4004L113.942 16.8418C114.626 17.1342 114.989 17.8114 114.963 18.7269L114.893 20.7848L113.89 20.3824L113.956 18.5183C113.996 17.5697 113.593 16.8626 112.843 16.542L111.938 16.1553L110.712 19.0242ZM113.645 12.1608L112.306 15.2946L113.917 15.9831C114.877 16.3934 115.657 16.0349 116.109 14.9756C116.52 14.0156 116.172 13.2407 115.146 12.8021L113.645 12.1608Z" fill="#17A500"/>
<path d="M120.927 24.0632L116.671 21.7158L120.729 14.3606L124.984 16.7081L124.532 17.5277L121.191 15.6845L119.817 18.1747L122.969 19.9136L122.517 20.7331L119.365 18.9943L118.037 21.4005L121.379 23.2437L120.927 24.0632Z" fill="#17A500"/>
<path d="M124.703 26.563L123.841 25.9738L128.053 19.812L125.864 18.3154L126.392 17.5427L131.623 21.1184L131.094 21.8911L128.915 20.4012L124.703 26.563Z" fill="#17A500"/>
<path d="M127.904 28.8604L127.068 28.1585L134.683 23.5828L135.924 24.6242L132.739 32.9178L131.903 32.2159L132.472 30.7351L129.264 28.0431L127.904 28.8604ZM132.76 25.9485L130.114 27.5344L132.825 29.8099L133.928 26.9282C134.247 26.0996 134.529 25.5213 134.881 24.9709L134.522 24.6701C134.041 25.1125 133.521 25.4902 132.76 25.9485Z" fill="#17A500"/>
<path d="M134.351 34.6071L133.61 33.8716L139.528 27.9103L140.269 28.6459L134.351 34.6071Z" fill="#17A500"/>
<path d="M143.241 31.7552L137.612 36.6562L140.275 39.7153L139.569 40.3299L136.221 36.4835L142.556 30.9678L143.241 31.7552Z" fill="#17A500"/>
<path d="M143.204 45.6835C142.23 44.2128 142.401 42.862 143.671 42.0205L144.282 41.6163L144.858 42.4867L144.348 42.8246C143.508 43.3812 143.375 44.2462 143.985 45.1666C144.608 46.107 145.392 46.379 146.103 45.9085C146.553 45.6103 146.718 44.9685 146.557 44.1825L146.216 42.4941C145.986 41.3651 146.336 40.3711 147.166 39.8211C148.327 39.0524 149.557 39.4322 150.508 40.8462C151.462 42.2869 151.278 43.6176 150.008 44.4592L149.397 44.8634L148.821 43.993L149.331 43.655C150.171 43.0984 150.317 42.2535 149.727 41.3631C149.154 40.5193 148.423 40.2841 147.762 40.7215C147.292 41.0329 147.114 41.698 147.284 42.5206L147.599 44.0825C147.835 45.2647 147.499 46.2788 146.699 46.8089C145.498 47.6041 144.205 47.1942 143.204 45.6835Z" fill="#17A500"/>
<path d="M147.046 51.8086L146.555 50.8871L153.143 47.3788L151.897 45.038L152.723 44.5981L155.701 50.1906L154.875 50.6305L153.634 48.3003L147.046 51.8086Z" fill="#17A500"/>
<path d="M149.9 58.4253C148.993 56.1644 149.996 54.1201 152.502 53.1149C154.997 52.1143 157.124 52.9033 158.031 55.1642C158.937 57.4251 157.945 59.465 155.451 60.4657C152.945 61.4708 150.807 60.6862 149.9 58.4253ZM150.769 58.0769C151.421 59.7029 153.068 60.2317 155.04 59.441C157 58.6548 157.814 57.1387 157.162 55.5127C156.51 53.8866 154.873 53.3533 152.913 54.1396C150.942 54.9303 150.117 56.4508 150.769 58.0769Z" fill="#17A500"/>
<path d="M152.094 64.0625L151.818 63.0559L159.917 60.8281L160.626 63.4082C161.107 65.1553 160.553 66.3532 159.083 66.7574C157.695 67.1393 156.686 66.5458 156.276 65.1027L155.813 65.23C156.011 65.9474 155.707 66.6532 154.975 67.2031L153.321 68.4297L153.011 67.3947L154.511 66.2853C155.278 65.7258 155.58 64.9706 155.364 64.1838L155.103 63.235L152.094 64.0625ZM159.291 62.0829L156.005 62.9868L156.47 64.676C156.747 65.6827 157.513 66.0693 158.624 65.7638C159.63 65.4869 160.02 64.7325 159.724 63.6565L159.291 62.0829Z" fill="#17A500"/>
<path d="M154.531 75.2727L153.73 70.4791L162.015 69.0951L162.816 73.8887L161.893 74.0429L161.264 70.279L158.459 70.7476L159.052 74.2984L158.129 74.4526L157.536 70.9018L154.825 71.3546L155.454 75.1184L154.531 75.2727Z" fill="#17A500"/>
<path d="M154.99 79.8278L154.961 78.7362L163.436 81.4002L163.48 83.0196L155.161 86.1375L155.132 85.0459L156.617 84.4896L156.504 80.3031L154.99 79.8278ZM160.39 81.5305L157.448 80.6017L157.544 84.1404L160.432 83.054C161.264 82.7434 161.883 82.5706 162.529 82.4691L162.516 82.0013C161.866 81.9348 161.238 81.7957 160.39 81.5305Z" fill="#17A500"/>
<path d="M154.72 89.8011C154.855 88.0423 155.82 87.0818 157.34 87.1993L158.07 87.2557L157.989 88.2966L157.379 88.2494C156.374 88.1718 155.738 88.7725 155.653 89.8732C155.566 90.9979 156.017 91.6948 156.867 91.7604C157.405 91.802 157.93 91.3973 158.286 90.6786L159.056 89.1373C159.569 88.1058 160.455 87.5364 161.448 87.6132C162.836 87.7204 163.573 88.7764 163.453 90.4762C163.32 92.1991 162.357 93.1356 160.838 93.0182L160.108 92.9618L160.188 91.9209L160.799 91.968C161.804 92.0457 162.438 91.4689 162.52 90.4041C162.587 89.3862 162.155 88.751 161.365 88.6899C160.803 88.6465 160.253 89.0614 159.882 89.815L159.17 91.2404C158.629 92.3179 157.741 92.9112 156.784 92.8372C155.348 92.7262 154.58 91.6077 154.72 89.8011Z" fill="#17A500"/>
<path d="M154.281 95.281L154.437 94.2488L162.743 95.5056L162.587 96.5378L154.281 95.281Z" fill="#17A500"/>
<path d="M153.171 100.177C153.567 98.4579 154.664 97.6518 156.149 97.9942L156.863 98.1587L156.628 99.176L156.032 99.0385C155.05 98.812 154.331 99.3113 154.083 100.387C153.829 101.486 154.172 102.243 155.003 102.434C155.529 102.555 156.108 102.233 156.567 101.576L157.557 100.166C158.218 99.2225 159.18 98.7915 160.15 99.0153C161.507 99.3281 162.078 100.482 161.707 102.145C161.319 103.829 160.227 104.612 158.742 104.269L158.029 104.105L158.263 103.087L158.859 103.225C159.842 103.451 160.555 102.975 160.795 101.935C161.012 100.938 160.679 100.246 159.908 100.068C159.358 99.941 158.753 100.269 158.274 100.959L157.357 102.263C156.662 103.248 155.695 103.702 154.76 103.486C153.357 103.163 152.764 101.942 153.171 100.177Z" fill="#17A500"/>
<path d="M151.135 107.981L151.509 107.006L159.351 110.016L158.392 112.514C157.743 114.206 156.586 114.842 155.164 114.296C153.819 113.78 153.358 112.703 153.885 111.298L153.437 111.126C153.17 111.821 152.507 112.209 151.591 112.218L149.532 112.224L149.896 111.207L151.762 111.203C152.711 111.208 153.403 110.779 153.695 110.018L154.048 109.099L151.135 107.981ZM158.103 110.655L154.922 109.434L154.294 111.07C153.92 112.045 154.307 112.81 155.383 113.223C156.357 113.597 157.119 113.221 157.518 112.179L158.103 110.655Z" fill="#17A500"/>
<path d="M146.534 118.326L148.723 113.986L156.223 117.769L154.035 122.108L153.199 121.687L154.917 118.28L152.378 116.999L150.757 120.213L149.921 119.792L151.542 116.578L149.089 115.34L147.37 118.747L146.534 118.326Z" fill="#17A500"/>
<path d="M144.112 122.353L144.669 121.47L150.981 125.454L152.396 123.211L153.188 123.711L149.806 129.069L149.015 128.569L150.424 126.337L144.112 122.353Z" fill="#17A500"/>
<path d="M142.054 125.511L142.725 124.65L147.575 132.093L146.579 133.371L138.175 130.491L138.846 129.63L140.347 130.144L142.92 126.84L142.054 125.511ZM145.141 130.258L143.46 127.671L141.284 130.464L144.204 131.46C145.044 131.749 145.632 132.01 146.195 132.342L146.483 131.972C146.023 131.508 145.626 131.001 145.141 130.258Z" fill="#17A500"/>
<path d="M136.615 132.131L137.321 131.361L143.514 137.036L142.808 137.806L136.615 132.131Z" fill="#17A500"/>
<path d="M139.541 141.188L134.438 135.74L131.478 138.513L130.838 137.83L134.56 134.344L140.302 140.474L139.541 141.188Z" fill="#17A500"/>
<path d="M125.83 141.518C127.264 140.491 128.62 140.611 129.507 141.85L129.934 142.446L129.085 143.053L128.729 142.556C128.142 141.736 127.272 141.636 126.375 142.279C125.458 142.936 125.215 143.73 125.711 144.422C126.025 144.861 126.673 145.003 127.452 144.813L129.127 144.411C130.247 144.14 131.253 144.453 131.833 145.262C132.644 146.394 132.309 147.637 130.931 148.639C129.526 149.646 128.19 149.511 127.302 148.272L126.876 147.677L127.725 147.069L128.081 147.566C128.668 148.386 129.518 148.5 130.386 147.878C131.208 147.275 131.416 146.535 130.955 145.891C130.627 145.433 129.956 145.279 129.14 145.479L127.591 145.851C126.418 146.13 125.392 145.832 124.833 145.051C123.994 143.881 124.357 142.573 125.83 141.518Z" fill="#17A500"/>
<path d="M119.733 145.683L120.636 145.158L124.385 151.613L126.678 150.281L127.148 151.09L121.669 154.272L121.199 153.463L123.482 152.137L119.733 145.683Z" fill="#17A500"/>
<path d="M113.266 148.779C115.492 147.788 117.572 148.714 118.67 151.181C119.763 153.637 119.054 155.791 116.829 156.782C114.603 157.772 112.528 156.857 111.435 154.402C110.337 151.935 111.041 149.769 113.266 148.779ZM113.647 149.634C112.047 150.346 111.58 152.012 112.443 153.953C113.302 155.882 114.848 156.639 116.448 155.927C118.049 155.214 118.521 153.559 117.662 151.63C116.798 149.689 115.248 148.921 113.647 149.634Z" fill="#17A500"/>
<path d="M107.436 151.295L108.433 150.984L110.935 159.003L108.381 159.8C106.651 160.34 105.435 159.827 104.981 158.372C104.552 156.997 105.111 155.968 106.539 155.51L106.396 155.052C105.686 155.273 104.97 154.994 104.395 154.281L103.113 152.669L104.137 152.325L105.297 153.786C105.882 154.533 106.647 154.81 107.426 154.567L108.366 154.274L107.436 151.295ZM109.66 158.42L108.644 155.167L106.972 155.689C105.975 156 105.615 156.779 105.958 157.878C106.269 158.875 107.036 159.239 108.102 158.907L109.66 158.42Z" fill="#17A500"/>
<path d="M96.7602 154.041L101.52 153.057L103.219 161.284L98.4599 162.267L98.2705 161.35L102.008 160.578L101.432 157.793L97.9066 158.522L97.7172 157.605L101.243 156.876L100.687 154.185L96.9496 154.957L96.7602 154.041Z" fill="#17A500"/>
<path d="M91.93 154.734L93.02 154.666L90.6517 163.229L89.0348 163.329L85.6301 155.123L86.72 155.056L87.3275 156.521L91.5076 156.263L91.93 154.734ZM90.4157 160.19L91.2419 157.217L87.7087 157.435L88.8946 160.284C89.2339 161.104 89.4281 161.717 89.5519 162.359L90.019 162.33C90.0629 161.678 90.1801 161.046 90.4157 160.19Z" fill="#17A500"/>
<path d="M81.8309 154.818C83.5934 154.892 84.5867 155.823 84.5221 157.346L84.491 158.077L83.4479 158.033L83.4739 157.422C83.5167 156.415 82.8942 155.8 81.7912 155.753C80.6642 155.705 79.9834 156.18 79.9473 157.032C79.9244 157.571 80.3471 158.082 81.0777 158.413L82.6448 159.128C83.6935 159.605 84.2932 160.471 84.251 161.466C84.1919 162.857 83.1622 163.63 81.4592 163.57C79.7327 163.496 78.7633 162.566 78.828 161.044L78.8591 160.312L79.9021 160.357L79.8762 160.968C79.8334 161.975 80.4319 162.589 81.4989 162.634C82.5185 162.666 83.1383 162.212 83.1719 161.42C83.1959 160.857 82.7622 160.322 81.9961 159.977L80.5469 159.315C79.4513 158.812 78.8275 157.945 78.8683 156.986C78.9294 155.547 80.0206 154.741 81.8309 154.818Z" fill="#17A500"/>
<path d="M76.293 154.567L77.33 154.688L76.3609 163.032L75.3239 162.911L76.293 154.567Z" fill="#17A500"/>
<path d="M71.6942 153.692C73.427 154.022 74.2743 155.088 73.9888 156.585L73.8516 157.304L72.8261 157.109L72.9408 156.507C73.1296 155.517 72.6033 154.818 71.5188 154.611C70.4108 154.4 69.6681 154.771 69.5084 155.608C69.4073 156.139 69.7512 156.705 70.4258 157.139L71.8722 158.075C72.8403 158.699 73.3077 159.644 73.1211 160.622C72.8603 161.989 71.729 162.604 70.0529 162.297C68.3555 161.973 67.5318 160.912 67.8173 159.415L67.9544 158.696L68.98 158.892L68.8653 159.493C68.6764 160.483 69.1792 161.177 70.2283 161.377C71.2325 161.557 71.9118 161.198 72.0602 160.42C72.1659 159.866 71.8146 159.273 71.1069 158.821L69.7694 157.955C68.7586 157.298 68.2677 156.349 68.4476 155.406C68.7174 153.992 69.9143 153.352 71.6942 153.692Z" fill="#17A500"/>
<path d="M63.8047 151.97L64.7928 152.308L62.0796 160.257L59.5471 159.393C57.8322 158.808 57.1534 157.676 57.6456 156.233C58.1108 154.871 59.1693 154.37 60.5928 154.843L60.7478 154.389C60.0437 154.148 59.6309 153.5 59.5881 152.585L59.5041 150.528L60.534 150.854L60.608 152.718C60.6391 153.667 61.0935 154.342 61.8657 154.605L62.797 154.923L63.8047 151.97ZM61.3939 159.034L62.4947 155.809L60.8366 155.243C59.8485 154.906 59.098 155.322 58.7259 156.412C58.3887 157.4 58.7932 158.147 59.8494 158.507L61.3939 159.034Z" fill="#17A500"/>
<path d="M53.2416 147.753L57.6593 149.779L54.1578 157.415L49.7402 155.389L50.1303 154.538L53.599 156.129L54.7845 153.543L51.5122 152.043L51.9023 151.192L55.1747 152.693L56.3201 150.195L52.8515 148.604L53.2416 147.753Z" fill="#17A500"/>
<path d="M49.0311 145.439L49.9338 145.963L46.1849 152.418L48.4781 153.75L48.008 154.559L42.5292 151.377L42.9993 150.567L45.2822 151.893L49.0311 145.439Z" fill="#17A500"/>
<path d="M45.7895 143.496L46.6749 144.136L39.4136 149.254L38.1 148.306L40.6716 139.802L41.557 140.441L41.0974 141.96L44.4932 144.411L45.7895 143.496ZM41.1586 146.754L43.6826 144.98L40.8123 142.908L39.9229 145.862C39.6648 146.712 39.4261 147.309 39.1149 147.884L39.4944 148.158C39.9417 147.682 40.4334 147.267 41.1586 146.754Z" fill="#17A500"/>
<path d="M38.9488 138.283L39.7436 138.96L34.2974 145.355L33.5025 144.678L38.9488 138.283Z" fill="#17A500"/>
<path d="M29.9878 141.519L35.2465 136.222L32.3681 133.365L33.0275 132.701L36.6468 136.294L30.7287 142.255L29.9878 141.519Z" fill="#17A500"/>
<path d="M29.1414 127.802C30.2203 129.198 30.1489 130.558 28.9431 131.49L28.364 131.937L27.7255 131.111L28.2097 130.737C29.0072 130.121 29.0761 129.248 28.4009 128.375C27.711 127.483 26.9086 127.269 26.2345 127.79C25.8073 128.12 25.6896 128.772 25.9072 129.544L26.3707 131.203C26.6821 132.312 26.4065 133.329 25.6185 133.939C24.5172 134.79 23.2625 134.501 22.2108 133.16C21.1539 131.793 21.24 130.452 22.4457 129.52L23.0249 129.073L23.6634 129.899L23.1792 130.273C22.3817 130.889 22.2981 131.743 22.9513 132.588C23.5846 133.387 24.3314 133.568 24.958 133.084C25.4042 132.739 25.5335 132.063 25.3033 131.255L24.8753 129.72C24.5535 128.558 24.8144 127.522 25.574 126.935C26.7132 126.055 28.0332 126.369 29.1414 127.802Z" fill="#17A500"/>
<path d="M24.7732 121.879L25.3304 122.762L19.0184 126.746L20.4338 128.989L19.6423 129.488L16.2606 124.13L17.0522 123.631L18.4612 125.863L24.7732 121.879Z" fill="#17A500"/>
<path d="M21.444 115.528C22.5167 117.715 21.6686 119.828 19.2445 121.017C16.8311 122.201 14.6517 121.572 13.579 119.385C12.5063 117.198 13.3436 115.09 15.757 113.907C18.1811 112.718 20.3713 113.341 21.444 115.528ZM20.6036 115.94C19.8322 114.367 18.1501 113.962 16.2431 114.898C14.3469 115.828 13.6479 117.4 14.4194 118.973C15.1909 120.546 16.8621 120.956 18.7584 120.026C20.6653 119.091 21.3751 117.513 20.6036 115.94Z" fill="#17A500"/>
<path d="M18.7459 109.868L19.0942 110.853L11.1756 113.655L10.2827 111.133C9.6781 109.425 10.145 108.19 11.5816 107.682C12.9391 107.201 13.9886 107.721 14.5004 109.131L14.9529 108.971C14.7047 108.269 14.957 107.543 15.648 106.942L17.2098 105.6L17.5927 106.611L16.1767 107.825C15.4517 108.438 15.2041 109.213 15.4763 109.982L15.8047 110.909L18.7459 109.868ZM11.7096 112.359L14.9223 111.222L14.3377 109.57C13.9894 108.586 13.1976 108.255 12.1117 108.64C11.1275 108.988 10.7927 109.768 11.1651 110.82L11.7096 112.359Z" fill="#17A500"/>
<path d="M15.5029 98.8691L16.6489 103.592L8.48575 105.573L7.33974 100.85L8.24934 100.629L9.14918 104.338L11.913 103.667L11.0641 100.168L11.9737 99.9477L12.8226 103.446L15.4931 102.798L14.5933 99.0898L15.5029 98.8691Z" fill="#17A500"/>
<path d="M14.7313 94.497L14.8406 95.5835L6.1933 93.5467L6.03117 91.9348L14.0996 88.2167L14.2089 89.3032L12.768 89.9667L13.1872 94.1337L14.7313 94.497ZM9.22119 93.1939L12.2234 93.905L11.8692 90.3828L9.06867 91.6775C8.26171 92.0482 7.65646 92.2658 7.02012 92.4143L7.06695 92.8799C7.72011 92.8986 8.35659 92.9914 9.22119 93.1939Z" fill="#17A500"/>
</svg>
