<svg width="219" height="211" viewBox="0 0 219 211" fill="none" xmlns="http://www.w3.org/2000/svg">
<rect width="219" height="211" fill="white"/>
<path d="M108.749 176.105L109.84 176.159L106.53 184.404L104.912 184.322L102.445 175.788L103.536 175.843L103.976 177.367L108.159 177.577L108.749 176.105ZM106.635 181.357L107.788 178.495L104.253 178.318L105.113 181.281C105.359 182.134 105.483 182.765 105.535 183.417L106.002 183.44C106.118 182.797 106.306 182.182 106.635 181.357Z" fill="#17A500"/>
<path d="M99.1581 175.11C100.902 175.374 101.79 176.407 101.562 177.914L101.452 178.637L100.42 178.481L100.511 177.876C100.662 176.879 100.11 176.201 99.018 176.036C97.9027 175.867 97.1747 176.267 97.0472 177.109C96.9665 177.643 97.3318 178.196 98.0226 178.604L99.5037 179.483C100.495 180.07 100.998 180.996 100.849 181.981C100.641 183.357 99.534 184.015 97.8474 183.772C96.1388 183.513 95.275 182.484 95.5031 180.978L95.6126 180.254L96.6448 180.41L96.5533 181.015C96.4024 182.012 96.9314 182.687 97.9874 182.846C98.9977 182.987 99.6628 182.602 99.7813 181.819C99.8657 181.262 99.492 180.683 98.7675 180.258L97.3979 179.444C96.3627 178.826 95.8358 177.897 95.9794 176.947C96.1949 175.524 97.3665 174.839 99.1581 175.11Z" fill="#17A500"/>
<path d="M93.5311 174.224L94.5484 174.458L92.661 182.643L91.6437 182.409L93.5311 174.224Z" fill="#17A500"/>
<path d="M89.0121 172.823C90.698 173.342 91.4229 174.495 90.9744 175.951L90.759 176.651L89.7612 176.344L89.9414 175.759C90.238 174.795 89.7917 174.043 88.7366 173.718C87.6586 173.386 86.8795 173.673 86.6287 174.488C86.4698 175.004 86.7494 175.605 87.3721 176.11L88.7068 177.199C89.6003 177.926 89.961 178.916 89.6679 179.868C89.2582 181.199 88.0662 181.685 86.4341 181.195C84.7826 180.687 84.0806 179.542 84.5291 178.085L84.7445 177.385L85.7423 177.693L85.5622 178.278C85.2655 179.241 85.6888 179.987 86.7096 180.301C87.6879 180.59 88.4026 180.307 88.6357 179.55C88.8017 179.011 88.5177 178.384 87.8641 177.856L86.63 176.849C85.6976 176.084 85.3141 175.087 85.5966 174.17C86.0204 172.794 87.2803 172.29 89.0121 172.823Z" fill="#17A500"/>
<path d="M81.1359 170.112L82.0799 170.557L78.4935 178.153L76.0736 177.011C74.4351 176.237 73.8874 175.036 74.538 173.658C75.1529 172.356 76.2608 171.977 77.6224 172.606L77.8273 172.172C77.1545 171.855 76.8169 171.164 76.8768 170.25L77.0238 168.197L78.0107 168.636L77.8755 170.496C77.8002 171.443 78.1761 172.164 78.9139 172.513L79.8037 172.933L81.1359 170.112ZM77.949 176.861L79.4041 173.779L77.8198 173.031C76.8758 172.586 76.0834 172.915 75.5915 173.956C75.1458 174.9 75.4641 175.688 76.4733 176.164L77.949 176.861Z" fill="#17A500"/>
<path d="M71.1154 164.709L75.2815 167.212L70.9559 174.412L66.7898 171.91L67.2718 171.107L70.543 173.072L72.0075 170.635L68.9215 168.781L69.4035 167.978L72.4895 169.832L73.9045 167.477L70.6334 165.512L71.1154 164.709Z" fill="#17A500"/>
<path d="M67.3825 162.045L68.2223 162.665L63.7876 168.669L65.9208 170.245L65.3647 170.998L60.2682 167.233L60.8244 166.48L62.9479 168.049L67.3825 162.045Z" fill="#17A500"/>
<path d="M64.1983 159.587L65.006 160.321L57.2142 164.589L56.0159 163.499L59.5292 155.339L60.337 156.074L59.7093 157.531L62.8072 160.349L64.1983 159.587ZM59.2298 162.302L61.9377 160.823L59.3191 158.441L58.1025 161.276C57.7503 162.092 57.4457 162.658 57.0718 163.194L57.418 163.509C57.9162 163.086 58.4515 162.729 59.2298 162.302Z" fill="#17A500"/>
<path d="M58.0081 153.633L58.7218 154.395L52.591 160.137L51.8773 159.375L58.0081 153.633Z" fill="#17A500"/>
<path d="M49.0152 156.153L54.8192 151.46L52.269 148.306L52.9969 147.717L56.2035 151.683L49.6716 156.965L49.0152 156.153Z" fill="#17A500"/>
<path d="M49.5285 142.177C50.448 143.683 50.228 145.026 48.9274 145.821L48.3027 146.202L47.7586 145.311L48.2809 144.992C49.1411 144.467 49.3052 143.607 48.7297 142.665C48.1418 141.703 47.3676 141.402 46.6405 141.846C46.1797 142.128 45.9912 142.763 46.123 143.554L46.4019 145.254C46.5899 146.391 46.2045 147.371 45.3545 147.89C44.1666 148.616 42.951 148.191 42.0526 146.743C41.1519 145.269 41.3843 143.946 42.6849 143.151L43.3096 142.77L43.8538 143.661L43.3315 143.98C42.4713 144.505 42.2947 145.344 42.8514 146.255C43.3933 147.12 44.1157 147.382 44.7916 146.969C45.2729 146.675 45.4756 146.017 45.3353 145.188L45.078 143.616C44.8855 142.426 45.2583 141.425 46.0776 140.924C47.3065 140.174 48.584 140.631 49.5285 142.177Z" fill="#17A500"/>
<path d="M45.9314 135.932L46.3876 136.871L39.6741 140.133L40.833 142.518L39.9911 142.927L37.2222 137.228L38.0641 136.819L39.2178 139.194L45.9314 135.932Z" fill="#17A500"/>
<path d="M43.3233 129.197C44.1447 131.49 43.0657 133.495 40.5239 134.406C37.9933 135.312 35.8978 134.444 35.0764 132.151C34.2549 129.857 35.3227 127.856 37.8532 126.95C40.3951 126.039 42.5019 126.904 43.3233 129.197ZM42.4421 129.512C41.8514 127.863 40.2251 127.273 38.2255 127.989C36.2372 128.701 35.3668 130.186 35.9575 131.835C36.5483 133.485 38.1633 134.079 40.1516 133.367C42.1512 132.65 43.0329 131.162 42.4421 129.512Z" fill="#17A500"/>
<path d="M41.3196 123.368L41.5581 124.384L33.3801 126.303L32.7689 123.697C32.355 121.933 32.9543 120.757 34.438 120.409C35.8399 120.08 36.8262 120.712 37.1805 122.169L37.6478 122.06C37.4779 121.335 37.8082 120.642 38.5609 120.12L40.2602 118.957L40.5303 120.003L38.9897 121.055C38.202 121.585 37.871 122.328 38.0573 123.122L38.2821 124.08L41.3196 123.368ZM34.0529 125.072L37.3708 124.294L36.9707 122.588C36.7322 121.572 35.9815 121.156 34.8599 121.419C33.8435 121.658 33.4253 122.397 33.6802 123.484L34.0529 125.072Z" fill="#17A500"/>
<path d="M39.3319 112.143L39.9482 116.964L31.6161 118.029L30.9997 113.209L31.9282 113.09L32.4121 116.875L35.2332 116.514L34.7766 112.943L35.7051 112.825L36.1616 116.396L38.8874 116.047L38.4035 112.262L39.3319 112.143Z" fill="#17A500"/>
<path d="M39.0385 107.152L39.0217 108.244L30.6673 105.222L30.6923 103.602L39.136 100.841L39.1191 101.932L37.6113 102.425L37.5467 106.613L39.0385 107.152ZM33.7157 105.221L36.6158 106.274L36.6704 102.735L33.7392 103.698C32.8949 103.973 32.2685 104.119 31.6193 104.193L31.6121 104.661C32.2587 104.755 32.8802 104.92 33.7157 105.221Z" fill="#17A500"/>
<path d="M39.7031 97.5388C39.4996 99.291 38.4984 100.214 36.9846 100.038L36.2575 99.9534L36.378 98.9164L36.9859 98.987C37.9871 99.1033 38.646 98.5274 38.7733 97.4308C38.9035 96.3103 38.479 95.5966 37.6327 95.4983C37.0963 95.436 36.5564 95.8203 36.1725 96.5247L35.3447 98.0353C34.7924 99.0463 33.8846 99.5811 32.8953 99.4662C31.5126 99.3056 30.8169 98.2221 31.0016 96.5281C31.201 94.8117 32.1993 93.9129 33.7131 94.0887L34.4403 94.1731L34.3198 95.2102L33.7119 95.1396C32.7106 95.0233 32.0546 95.5753 31.9313 96.6361C31.8256 97.6507 32.2332 98.3021 33.0199 98.3934C33.5801 98.4585 34.1453 98.0651 34.5452 97.3263L35.3115 95.9294C35.8932 94.8734 36.8037 94.3148 37.7573 94.4255C39.1877 94.5917 39.9122 95.7389 39.7031 97.5388Z" fill="#17A500"/>
<path d="M40.3693 92.0174L40.1737 93.0429L31.9224 91.469L32.118 90.4435L40.3693 92.0174Z" fill="#17A500"/>
<path d="M41.6319 87.3452C41.177 89.0495 40.0529 89.8176 38.5805 89.4245L37.8732 89.2358L38.1425 88.2271L38.7338 88.3849C39.7077 88.6449 40.4429 88.1704 40.7276 87.1038C41.0185 86.0139 40.7018 85.2463 39.8786 85.0266C39.3569 84.8873 38.767 85.1894 38.2853 85.8309L37.2476 87.2057C36.5548 88.1262 35.5792 88.5241 34.6169 88.2672C33.2719 87.9082 32.7404 86.7355 33.1683 85.086C33.6139 83.4165 34.7318 82.6716 36.2043 83.0646L36.9115 83.2534L36.6423 84.2621L36.051 84.1042C35.0771 83.8443 34.348 84.2955 34.0726 85.3274C33.8211 86.316 34.1302 87.0195 34.8954 87.2237C35.4403 87.3692 36.0565 87.0617 36.5591 86.3885L37.5194 85.1172C38.2478 84.1566 39.2296 83.7355 40.1571 83.9831C41.5484 84.3545 42.0993 85.5945 41.6319 87.3452Z" fill="#17A500"/>
<path d="M44.0457 79.4354L43.6354 80.3954L35.9113 77.0943L36.9629 74.6336C37.675 72.9674 38.8546 72.3754 40.256 72.9743C41.5801 73.5402 42.0004 74.6333 41.4219 76.0173L41.8633 76.2059C42.1557 75.5218 42.8328 75.1587 43.7483 75.1846L45.8062 75.255L45.4039 76.2575L43.5398 76.1916C42.5912 76.1516 41.8841 76.5541 41.5634 77.3045L41.1767 78.2093L44.0457 79.4354ZM37.1822 76.5022L40.3161 77.8415L41.0046 76.2304C41.4148 75.2704 41.0564 74.4908 39.9971 74.0381C39.0371 73.6278 38.2622 73.9753 37.8236 75.0015L37.1822 76.5022Z" fill="#17A500"/>
<path d="M49.0847 69.2205L46.7373 73.476L39.3821 69.4186L41.7296 65.1632L42.5491 65.6153L40.706 68.9566L43.1962 70.3303L44.9351 67.1781L45.7546 67.6302L44.0158 70.7824L46.4219 72.1097L48.2651 68.7684L49.0847 69.2205Z" fill="#17A500"/>
<path d="M51.5845 65.4447L50.9953 66.3065L44.8335 62.0942L43.3368 64.2836L42.5641 63.7553L46.1398 58.5247L46.9125 59.053L45.4227 61.2324L51.5845 65.4447Z" fill="#17A500"/>
<path d="M53.8819 62.2429L53.18 63.0794L48.6043 55.4645L49.6457 54.2236L57.9393 57.4077L57.2374 58.2443L55.7566 57.6753L53.0646 60.8835L53.8819 62.2429ZM50.97 57.387L52.5558 60.0336L54.8314 57.3219L51.9497 56.2196C51.1211 55.9003 50.5428 55.6186 49.9924 55.2665L49.6916 55.625C50.134 56.1058 50.5117 56.6265 50.97 57.387Z" fill="#17A500"/>
<path d="M59.6286 55.7963L58.8931 56.5372L52.9318 50.6191L53.6674 49.8782L59.6286 55.7963Z" fill="#17A500"/>
<path d="M56.7766 46.9058L61.6777 52.5352L64.7368 49.872L65.3514 50.5779L61.5049 53.9267L55.9892 47.5913L56.7766 46.9058Z" fill="#17A500"/>
<path d="M70.7047 46.943C69.234 47.9171 67.8833 47.7466 67.0417 46.4761L66.6375 45.8658L67.5079 45.2893L67.8459 45.7995C68.4025 46.6399 69.2674 46.7723 70.1878 46.1627C71.1283 45.5398 71.4002 44.7552 70.9297 44.0448C70.6316 43.5946 69.9897 43.4296 69.2038 43.5903L67.5153 43.9314C66.3864 44.161 65.3923 43.8119 64.8423 42.9815C64.0737 41.8209 64.4534 40.5907 65.8675 39.6397C67.3081 38.6855 68.6389 38.8692 69.4804 40.1398L69.8846 40.7501L69.0142 41.3266L68.6763 40.8164C68.1197 39.976 67.2747 39.8303 66.3843 40.4201C65.5406 40.9933 65.3054 41.7248 65.7427 42.3851C66.0542 42.8553 66.7193 43.0337 67.5418 42.8631L69.1037 42.5483C70.286 42.3122 71.3001 42.6481 71.8302 43.4485C72.6253 44.649 72.2154 45.9425 70.7047 46.943Z" fill="#17A500"/>
<path d="M76.8301 43.1013L75.9086 43.592L72.4003 37.0039L70.0595 38.2504L69.6196 37.4243L75.2121 34.4462L75.652 35.2723L73.3218 36.5132L76.8301 43.1013Z" fill="#17A500"/>
<path d="M83.447 40.2471C81.1861 41.1539 79.1418 40.1509 78.1367 37.6449C77.136 35.1501 77.925 33.0235 80.186 32.1167C82.4469 31.2099 84.4867 32.2018 85.4874 34.6966C86.4925 37.2025 85.7079 39.3402 83.447 40.2471ZM83.0986 39.3784C84.7247 38.7261 85.2535 37.0789 84.4628 35.1076C83.6765 33.1474 82.1605 32.3332 80.5344 32.9854C78.9083 33.6376 78.3751 35.2738 79.1613 37.234C79.952 39.2053 81.4725 40.0306 83.0986 39.3784Z" fill="#17A500"/>
<path d="M89.0842 38.053L88.0776 38.3299L85.8498 30.2307L88.43 29.521C90.1771 29.0404 91.3749 29.5945 91.7791 31.064C92.161 32.4524 91.5675 33.462 90.1244 33.8714L90.2517 34.3342C90.9691 34.1368 91.6749 34.4405 92.2249 35.1729L93.4514 36.8268L92.4165 37.1364L91.3071 35.6369C90.7476 34.8698 89.9923 34.5673 89.2055 34.7837L88.2568 35.0447L89.0842 38.053ZM87.1046 30.8563L88.0085 34.1422L89.6978 33.6776C90.7044 33.4007 91.0911 32.6347 90.7855 31.524C90.5087 30.5173 89.7542 30.1275 88.6782 30.4235L87.1046 30.8563Z" fill="#17A500"/>
<path d="M100.294 35.6164L95.5003 36.4171L94.1163 28.1319L98.9099 27.3312L99.0641 28.2544L95.3003 28.8831L95.7688 31.6882L99.3196 31.0951L99.4739 32.0183L95.9231 32.6114L96.3758 35.3219L100.14 34.6932L100.294 35.6164Z" fill="#17A500"/>
<path d="M104.849 35.1566L103.757 35.1861L106.421 26.711L108.041 26.6673L111.159 34.9861L110.067 35.0156L109.511 33.5301L105.324 33.6432L104.849 35.1566ZM106.552 29.7566L105.623 32.6988L109.162 32.6032L108.075 29.7155C107.765 28.8836 107.592 28.264 107.49 27.6185L107.023 27.6311C106.956 28.2812 106.817 28.9092 106.552 29.7566Z" fill="#17A500"/>
<path d="M114.823 35.4277C113.064 35.2918 112.103 34.3269 112.221 32.8074L112.277 32.0776L113.318 32.158L113.271 32.7682C113.193 33.7732 113.794 34.4094 114.895 34.4945C116.019 34.5814 116.716 34.1298 116.782 33.2803C116.824 32.7419 116.419 32.2172 115.7 31.8607L114.159 31.0917C113.127 30.5786 112.558 29.6921 112.635 28.6991C112.742 27.3112 113.798 26.5744 115.498 26.6938C117.221 26.8269 118.157 27.79 118.04 29.3095L117.983 30.0393L116.942 29.9588L116.99 29.3486C117.067 28.3436 116.49 27.7093 115.426 27.627C114.408 27.5603 113.772 27.9927 113.711 28.7823C113.668 29.3446 114.083 29.8942 114.836 30.2654L116.262 30.9774C117.339 31.5181 117.933 32.4064 117.859 33.3636C117.748 34.7993 116.629 35.5674 114.823 35.4277Z" fill="#17A500"/>
<path d="M120.303 35.8661L119.27 35.7099L120.527 27.4045L121.56 27.5607L120.303 35.8661Z" fill="#17A500"/>
<path d="M125.198 36.9763C123.479 36.58 122.673 35.4828 123.015 33.9978L123.18 33.2845L124.197 33.5191L124.06 34.1154C123.833 35.0977 124.333 35.8162 125.408 36.0643C126.507 36.3177 127.264 35.9749 127.455 35.1447C127.577 34.6185 127.255 34.0393 126.597 33.5798L125.187 32.5898C124.244 31.9289 123.813 30.9674 124.037 29.9969C124.349 28.6405 125.503 28.0692 127.166 28.4403C128.85 28.8286 129.633 29.9204 129.29 31.4054L129.126 32.1187L128.109 31.8841L128.246 31.2878C128.473 30.3056 127.997 29.5924 126.956 29.3524C125.959 29.1349 125.267 29.4678 125.089 30.2396C124.962 30.7892 125.291 31.3944 125.981 31.8737L127.284 32.79C128.269 33.4851 128.723 34.4519 128.508 35.3874C128.184 36.7906 126.964 37.3835 125.198 36.9763Z" fill="#17A500"/>
<path d="M133.003 39.0124L132.028 38.6383L135.038 30.796L137.536 31.7549C139.228 32.4042 139.864 33.5608 139.318 34.9836C138.802 36.328 137.725 36.7888 136.32 36.2625L136.148 36.7107C136.843 36.9773 137.231 37.6404 137.239 38.5562L137.246 40.6153L136.229 40.2507L136.225 38.3855C136.23 37.436 135.801 36.7445 135.039 36.4521L134.121 36.0995L133.003 39.0124ZM135.677 32.044L134.456 35.2257L136.092 35.8535C137.066 36.2275 137.832 35.8402 138.245 34.7647C138.619 33.79 138.243 33.0286 137.201 32.6288L135.677 32.044Z" fill="#17A500"/>
<path d="M143.348 43.6128L139.008 41.4243L142.791 33.9242L147.13 36.1127L146.709 36.9484L143.301 35.23L142.021 37.7694L145.235 39.3905L144.814 40.2262L141.599 38.6051L140.362 41.0587L143.769 42.7771L143.348 43.6128Z" fill="#17A500"/>
<path d="M147.375 46.0355L146.492 45.4783L150.476 39.1663L148.233 37.7508L148.733 36.9593L154.091 40.3409L153.591 41.1325L151.359 39.7235L147.375 46.0355Z" fill="#17A500"/>
<path d="M150.533 48.093L149.672 47.422L157.115 42.5721L158.393 43.5675L155.513 51.9716L154.651 51.3006L155.166 49.8001L151.862 47.2267L150.533 48.093ZM155.28 45.0062L152.693 46.6873L155.485 48.8626L156.482 45.9427C156.771 45.103 157.031 44.5149 157.363 43.952L156.994 43.6644C156.53 44.124 156.023 44.5205 155.28 45.0062Z" fill="#17A500"/>
<path d="M157.153 53.532L156.383 52.8267L162.058 46.6337L162.828 47.339L157.153 53.532Z" fill="#17A500"/>
<path d="M166.21 50.6069L160.762 55.7094L163.535 58.6697L162.852 59.3095L159.365 55.5873L165.496 49.845L166.21 50.6069Z" fill="#17A500"/>
<path d="M166.539 64.3174C165.512 62.8833 165.633 61.5272 166.872 60.6398L167.467 60.2135L168.075 61.0622L167.577 61.4186C166.758 62.0056 166.657 62.8748 167.3 63.7723C167.957 64.6893 168.751 64.9324 169.444 64.4362C169.882 64.1218 170.024 63.4743 169.835 62.6948L169.432 61.02C169.161 59.9002 169.474 58.894 170.283 58.314C171.415 57.5034 172.658 57.8379 173.661 59.2162C174.667 60.621 174.532 61.9575 173.293 62.845L172.698 63.2713L172.09 62.4225L172.587 62.0662C173.407 61.4792 173.521 60.6295 172.9 59.7612C172.296 58.939 171.556 58.7308 170.912 59.192C170.454 59.5204 170.3 60.1916 170.5 61.0074L170.872 62.5567C171.151 63.7295 170.853 64.7552 170.072 65.3142C168.902 66.1528 167.594 65.7904 166.539 64.3174Z" fill="#17A500"/>
<path d="M170.704 70.4143L170.18 69.5115L176.634 65.7626L175.302 63.4694L176.111 62.9992L179.294 68.478L178.484 68.9482L177.158 66.6653L170.704 70.4143Z" fill="#17A500"/>
<path d="M173.8 76.8807C172.81 74.6553 173.736 72.5749 176.202 71.4769C178.658 70.3838 180.813 71.0929 181.803 73.3184C182.794 75.5439 181.879 77.6193 179.423 78.7125C176.956 79.8104 174.791 79.1062 173.8 76.8807ZM174.655 76.5001C175.368 78.1007 177.034 78.5676 178.974 77.7039C180.904 76.845 181.661 75.2996 180.948 73.699C180.236 72.0984 178.581 71.6266 176.651 72.4855C174.711 73.3493 173.943 74.8995 174.655 76.5001Z" fill="#17A500"/>
<path d="M176.317 82.7113L176.006 81.7147L184.024 79.2124L184.822 81.7669C185.361 83.4966 184.848 84.7127 183.393 85.1667C182.019 85.5956 180.99 85.0369 180.531 83.6085L180.073 83.7515C180.295 84.4618 180.015 85.1775 179.302 85.7521L177.691 87.0342L177.346 86.0104L178.807 84.8506C179.555 84.2653 179.831 83.5002 179.588 82.7212L179.295 81.7819L176.317 82.7113ZM183.442 80.4878L180.189 81.5031L180.71 83.1755C181.021 84.1721 181.8 84.5325 182.9 84.1893C183.897 83.8783 184.26 83.1111 183.928 82.0457L183.442 80.4878Z" fill="#17A500"/>
<path d="M179.062 93.3873L178.079 88.6278L186.305 86.9281L187.289 91.6876L186.372 91.877L185.6 88.1399L182.815 88.7154L183.543 92.2409L182.626 92.4303L181.898 88.9048L179.207 89.4608L179.979 93.1979L179.062 93.3873Z" fill="#17A500"/>
<path d="M179.755 98.2174L179.688 97.1275L188.25 99.4958L188.35 101.113L180.145 104.517L180.077 103.427L181.543 102.82L181.284 98.6399L179.755 98.2174ZM185.211 99.7317L182.238 98.9055L182.457 102.439L185.305 101.253C186.126 100.914 186.739 100.719 187.38 100.596L187.352 100.128C186.7 100.085 186.067 99.9674 185.211 99.7317Z" fill="#17A500"/>
<path d="M179.839 108.317C179.914 106.554 180.845 105.561 182.368 105.625L183.099 105.656L183.055 106.7L182.443 106.674C181.436 106.631 180.821 107.253 180.774 108.356C180.727 109.483 181.202 110.164 182.053 110.2C182.593 110.223 183.103 109.8 183.435 109.07L184.15 107.503C184.627 106.454 185.493 105.854 186.488 105.896C187.879 105.956 188.652 106.985 188.591 108.688C188.518 110.415 187.588 111.384 186.065 111.319L185.334 111.288L185.378 110.245L185.99 110.271C186.997 110.314 187.611 109.716 187.656 108.649C187.688 107.629 187.233 107.009 186.442 106.976C185.879 106.952 185.344 107.385 184.999 108.151L184.337 109.601C183.834 110.696 182.967 111.32 182.007 111.279C180.569 111.218 179.762 110.127 179.839 108.317Z" fill="#17A500"/>
<path d="M179.589 113.854L179.709 112.817L188.053 113.786L187.933 114.823L179.589 113.854Z" fill="#17A500"/>
<path d="M178.713 118.453C179.044 116.72 180.11 115.873 181.607 116.158L182.326 116.296L182.13 117.321L181.529 117.206C180.539 117.018 179.84 117.544 179.633 118.628C179.422 119.736 179.793 120.479 180.63 120.639C181.16 120.74 181.727 120.396 182.161 119.721L183.096 118.275C183.721 117.307 184.665 116.84 185.644 117.026C187.011 117.287 187.626 118.418 187.318 120.094C186.995 121.792 185.933 122.615 184.436 122.33L183.717 122.193L183.913 121.167L184.514 121.282C185.504 121.471 186.199 120.968 186.399 119.919C186.578 118.915 186.219 118.235 185.441 118.087C184.887 117.981 184.295 118.333 183.842 119.04L182.976 120.378C182.319 121.389 181.371 121.88 180.428 121.7C179.013 121.43 178.374 120.233 178.713 118.453Z" fill="#17A500"/>
<path d="M176.992 126.342L177.329 125.354L185.279 128.067L184.415 130.6C183.829 132.315 182.698 132.994 181.255 132.501C179.892 132.036 179.391 130.978 179.865 129.554L179.41 129.399C179.17 130.103 178.522 130.516 177.607 130.559L175.55 130.643L175.876 129.613L177.74 129.539C178.689 129.508 179.363 129.053 179.627 128.281L179.945 127.35L176.992 126.342ZM184.056 128.753L180.831 127.652L180.265 129.31C179.928 130.298 180.343 131.049 181.434 131.421C182.422 131.758 183.168 131.354 183.529 130.298L184.056 128.753Z" fill="#17A500"/>
<path d="M172.775 136.906L174.801 132.488L182.436 135.99L180.41 140.407L179.559 140.017L181.15 136.548L178.565 135.363L177.064 138.635L176.214 138.245L177.714 134.973L175.216 133.827L173.626 137.296L172.775 136.906Z" fill="#17A500"/>
<path d="M170.46 141.116L170.985 140.214L177.439 143.963L178.771 141.669L179.58 142.139L176.398 147.618L175.589 147.148L176.915 144.865L170.46 141.116Z" fill="#17A500"/>
<path d="M168.518 144.358L169.157 143.472L174.276 150.734L173.327 152.047L164.824 149.476L165.463 148.59L166.981 149.05L169.432 145.654L168.518 144.358ZM171.776 148.989L170.002 146.465L167.93 149.335L170.884 150.224C171.734 150.482 172.331 150.721 172.906 151.032L173.18 150.653C172.703 150.205 172.289 149.714 171.776 148.989Z" fill="#17A500"/>
<path d="M163.305 151.198L163.981 150.404L170.377 155.85L169.7 156.645L163.305 151.198Z" fill="#17A500"/>
<path d="M166.541 160.16L161.244 154.901L158.387 157.779L157.722 157.12L161.315 153.501L167.277 159.419L166.541 160.16Z" fill="#17A500"/>
<path d="M152.824 161.006C154.22 159.927 155.579 159.998 156.511 161.204L156.959 161.783L156.133 162.422L155.759 161.938C155.142 161.14 154.27 161.071 153.397 161.746C152.504 162.436 152.29 163.239 152.811 163.913C153.142 164.34 153.794 164.458 154.566 164.24L156.225 163.777C157.334 163.465 158.351 163.741 158.96 164.529C159.812 165.63 159.523 166.885 158.182 167.936C156.815 168.993 155.474 168.907 154.542 167.701L154.094 167.122L154.92 166.484L155.295 166.968C155.911 167.766 156.764 167.849 157.609 167.196C158.409 166.563 158.59 165.816 158.106 165.189C157.761 164.743 157.084 164.614 156.277 164.844L154.742 165.272C153.58 165.594 152.544 165.333 151.957 164.573C151.076 163.434 151.391 162.114 152.824 161.006Z" fill="#17A500"/>
<path d="M146.901 165.374L147.784 164.817L151.768 171.129L154.01 169.713L154.51 170.505L149.152 173.887L148.652 173.095L150.885 171.686L146.901 165.374Z" fill="#17A500"/>
<path d="M140.55 168.703C142.737 167.63 144.85 168.478 146.039 170.902C147.223 173.316 146.594 175.495 144.407 176.568C142.22 177.641 140.112 176.803 138.928 174.39C137.739 171.966 138.363 169.776 140.55 168.703ZM140.962 169.543C139.389 170.315 138.984 171.997 139.919 173.904C140.849 175.8 142.422 176.499 143.995 175.728C145.568 174.956 145.978 173.285 145.048 171.389C144.113 169.482 142.535 168.772 140.962 169.543Z" fill="#17A500"/>
<path d="M134.89 171.401L135.874 171.053L138.677 178.972L136.154 179.865C134.446 180.469 133.212 180.002 132.703 178.566C132.223 177.208 132.742 176.159 134.152 175.647L133.992 175.194C133.291 175.443 132.565 175.19 131.964 174.499L130.622 172.937L131.632 172.554L132.846 173.971C133.459 174.696 134.234 174.943 135.003 174.671L135.931 174.343L134.89 171.401ZM137.38 178.438L136.243 175.225L134.592 175.809C133.608 176.158 133.277 176.95 133.661 178.036C134.009 179.02 134.79 179.355 135.842 178.982L137.38 178.438Z" fill="#17A500"/>
<path d="M123.891 174.644L128.614 173.498L130.594 181.661L125.871 182.807L125.651 181.898L129.359 180.998L128.688 178.234L125.19 179.083L124.969 178.174L128.468 177.325L127.82 174.654L124.111 175.554L123.891 174.644Z" fill="#17A500"/>
<path d="M119.518 175.416L120.605 175.307L118.568 183.954L116.956 184.116L113.238 176.048L114.325 175.939L114.988 177.379L119.155 176.96L119.518 175.416ZM118.215 180.926L118.926 177.924L115.404 178.278L116.699 181.079C117.07 181.886 117.287 182.491 117.436 183.127L117.901 183.081C117.92 182.427 118.013 181.791 118.215 180.926Z" fill="#17A500"/>
</svg>
