<svg width="170" height="171" viewBox="0 0 170 171" fill="none" xmlns="http://www.w3.org/2000/svg">
<path d="M83.7493 156.104L84.84 156.159L81.5304 164.404L79.9124 164.322L77.4453 155.788L78.5359 155.843L78.9761 157.367L83.1588 157.577L83.7493 156.104ZM81.6353 161.357L82.7883 158.495L79.2527 158.318L80.1132 161.281C80.3587 162.134 80.4833 162.765 80.5347 163.416L81.0021 163.44C81.1185 162.797 81.3055 162.182 81.6353 161.357Z" fill="#17A500"/>
<path d="M74.1584 155.11C75.9026 155.374 76.7901 156.407 76.5621 157.914L76.4525 158.637L75.4203 158.481L75.5119 157.876C75.6627 156.879 75.1099 156.201 74.0184 156.036C72.9031 155.867 72.1751 156.267 72.0476 157.109C71.9668 157.643 72.3322 158.196 73.0229 158.604L74.504 159.483C75.4954 160.07 75.9985 160.996 75.8495 161.981C75.6412 163.357 74.5343 164.015 72.8477 163.772C71.1392 163.513 70.2754 162.484 70.5034 160.978L70.6129 160.254L71.6452 160.41L71.5536 161.015C71.4028 162.012 71.9318 162.686 72.9878 162.846C73.9981 162.987 74.6632 162.602 74.7817 161.819C74.866 161.261 74.4924 160.683 73.7678 160.258L72.3982 159.444C71.363 158.826 70.8361 157.897 70.9798 156.947C71.1952 155.524 72.3668 154.839 74.1584 155.11Z" fill="#17A500"/>
<path d="M68.5313 154.223L69.5486 154.458L67.6612 162.643L66.6439 162.409L68.5313 154.223Z" fill="#17A500"/>
<path d="M64.0121 152.823C65.698 153.342 66.4229 154.495 65.9744 155.951L65.759 156.651L64.7612 156.344L64.9414 155.759C65.238 154.795 64.7917 154.043 63.7366 153.718C62.6586 153.386 61.8795 153.673 61.6287 154.488C61.4698 155.004 61.7494 155.605 62.3721 156.11L63.7068 157.199C64.6003 157.926 64.961 158.916 64.6679 159.868C64.2582 161.199 63.0662 161.685 61.4341 161.195C59.7826 160.687 59.0806 159.542 59.5291 158.085L59.7445 157.385L60.7423 157.693L60.5622 158.278C60.2655 159.241 60.6888 159.987 61.7096 160.301C62.6879 160.59 63.4026 160.307 63.6357 159.55C63.8017 159.011 63.5177 158.384 62.8641 157.856L61.63 156.849C60.6976 156.084 60.3141 155.087 60.5966 154.17C61.0204 152.794 62.2803 152.29 64.0121 152.823Z" fill="#17A500"/>
<path d="M56.136 150.112L57.08 150.557L53.4936 158.153L51.0738 157.011C49.4352 156.237 48.8875 155.036 49.5382 153.658C50.153 152.356 51.261 151.977 52.6225 152.606L52.8274 152.172C52.1547 151.855 51.817 151.164 51.877 150.251L52.024 148.197L53.0108 148.636L52.8756 150.496C52.8003 151.443 53.1762 152.164 53.9141 152.513L54.8039 152.933L56.136 150.112ZM52.9492 156.861L54.4042 153.779L52.8199 153.031C51.8759 152.586 51.0835 152.915 50.5916 153.957C50.1459 154.901 50.4642 155.688 51.4734 156.164L52.9492 156.861Z" fill="#17A500"/>
<path d="M46.1152 144.709L50.2814 147.212L45.9558 154.412L41.7897 151.91L42.2717 151.107L45.5429 153.072L47.0074 150.634L43.9214 148.781L44.4033 147.978L47.4894 149.832L48.9044 147.476L45.6333 145.511L46.1152 144.709Z" fill="#17A500"/>
<path d="M42.3824 142.045L43.2222 142.665L38.7875 148.669L40.9207 150.245L40.3646 150.998L35.2681 147.233L35.8242 146.48L37.9477 148.049L42.3824 142.045Z" fill="#17A500"/>
<path d="M39.1982 139.586L40.0059 140.321L32.2141 144.589L31.0158 143.499L34.5291 135.339L35.3369 136.074L34.7092 137.531L37.8071 140.349L39.1982 139.586ZM34.2297 142.302L36.9376 140.823L34.319 138.441L33.1024 141.276C32.7501 142.091 32.4456 142.658 32.0717 143.194L32.4179 143.509C32.9161 143.086 33.4514 142.729 34.2297 142.302Z" fill="#17A500"/>
<path d="M33.0081 133.633L33.7218 134.395L27.591 140.138L26.8773 139.376L33.0081 133.633Z" fill="#17A500"/>
<path d="M24.0152 136.153L29.8192 131.46L27.269 128.306L27.9969 127.717L31.2035 131.683L24.6716 136.965L24.0152 136.153Z" fill="#17A500"/>
<path d="M24.5285 122.177C25.448 123.683 25.228 125.026 23.9274 125.821L23.3027 126.202L22.7586 125.311L23.2809 124.992C24.1411 124.467 24.3052 123.607 23.7297 122.665C23.1418 121.702 22.3676 121.402 21.6405 121.846C21.1797 122.127 20.9912 122.763 21.123 123.554L21.4019 125.254C21.5899 126.391 21.2045 127.371 20.3545 127.89C19.1666 128.616 17.951 128.191 17.0526 126.743C16.1519 125.269 16.3843 123.945 17.6849 123.151L18.3096 122.77L18.8538 123.66L18.3315 123.979C17.4713 124.505 17.2947 125.344 17.8514 126.255C18.3933 127.12 19.1157 127.381 19.7916 126.969C20.2729 126.675 20.4756 126.017 20.3353 125.188L20.078 123.616C19.8855 122.426 20.2583 121.425 21.0776 120.924C22.3065 120.174 23.584 120.631 24.5285 122.177Z" fill="#17A500"/>
<path d="M20.9314 115.932L21.3876 116.871L14.6741 120.133L15.833 122.518L14.9911 122.927L12.2222 117.228L13.0641 116.819L14.2178 119.194L20.9314 115.932Z" fill="#17A500"/>
<path d="M18.3236 109.197C19.145 111.49 18.066 113.496 15.5241 114.406C12.9935 115.312 10.898 114.444 10.0766 112.151C9.25519 109.857 10.3229 107.856 12.8535 106.95C15.3953 106.039 17.5021 106.904 18.3236 109.197ZM17.4424 109.513C16.8516 107.863 15.2253 107.273 13.2257 107.989C11.2374 108.701 10.367 110.186 10.9578 111.835C11.5486 113.485 13.1635 114.079 15.1518 113.367C17.1514 112.65 18.0332 111.162 17.4424 109.513Z" fill="#17A500"/>
<path d="M16.3196 103.368L16.5581 104.384L8.3801 106.303L7.7689 103.697C7.35504 101.933 7.95429 100.757 9.438 100.409C10.8399 100.08 11.8262 100.712 12.1805 102.169L12.6478 102.06C12.4779 101.335 12.8082 100.642 13.5609 100.12L15.2602 98.957L15.5303 100.003L13.9897 101.055C13.202 101.585 12.871 102.328 13.0573 103.122L13.2821 104.08L16.3196 103.368ZM9.05291 105.072L12.3708 104.294L11.9707 102.588C11.7322 101.572 10.9815 101.156 9.85992 101.42C8.84352 101.658 8.42526 102.397 8.68016 103.484L9.05291 105.072Z" fill="#17A500"/>
<path d="M14.332 92.1432L14.9484 96.9639L6.61619 98.0292L5.99986 93.2084L6.92831 93.0897L7.41224 96.8749L10.2333 96.5143L9.77674 92.9433L10.7052 92.8246L11.1617 96.3956L13.8875 96.0471L13.4036 92.2619L14.332 92.1432Z" fill="#17A500"/>
<path d="M14.0387 87.1517L14.0218 88.2435L5.66744 85.2222L5.69245 83.6024L14.1361 80.8404L14.1192 81.9323L12.6115 82.4251L12.5468 86.6126L14.0387 87.1517ZM8.71582 85.2213L11.6159 86.2742L11.6706 82.7346L8.73935 83.6974C7.895 83.9724 7.26867 84.1188 6.61945 84.1928L6.61222 84.6607C7.25885 84.7547 7.88037 84.9203 8.71582 85.2213Z" fill="#17A500"/>
<path d="M14.7031 77.5388C14.4996 79.291 13.4984 80.2136 11.9846 80.0378L11.2575 79.9534L11.378 78.9163L11.9859 78.9869C12.9871 79.1032 13.646 78.5274 13.7733 77.4308C13.9035 76.3103 13.479 75.5966 12.6327 75.4983C12.0963 75.436 11.5564 75.8202 11.1725 76.5247L10.3447 78.0352C9.79238 79.0463 8.88461 79.5811 7.89526 79.4662C6.51256 79.3056 5.81692 78.2221 6.00159 76.5281C6.20096 74.8116 7.19932 73.9128 8.71315 74.0887L9.44026 74.1731L9.31981 75.2101L8.7119 75.1395C7.71063 75.0232 7.05456 75.5752 6.93134 76.6361C6.82558 77.6507 7.23315 78.302 8.01987 78.3934C8.5801 78.4585 9.14526 78.0651 9.54517 77.3263L10.3115 75.9293C10.8932 74.8734 11.8037 74.3147 12.7573 74.4255C14.1877 74.5916 14.9122 75.7389 14.7031 77.5388Z" fill="#17A500"/>
<path d="M15.3693 72.0173L15.1737 73.0429L6.92242 71.469L7.11802 70.4435L15.3693 72.0173Z" fill="#17A500"/>
<path d="M16.6319 67.345C16.177 69.0493 15.0529 69.8174 13.5805 69.4244L12.8732 69.2356L13.1425 68.2269L13.7338 68.3848C14.7077 68.6447 15.4429 68.1703 15.7276 67.1036C16.0185 66.0138 15.7018 65.2461 14.8786 65.0264C14.3569 64.8871 13.767 65.1892 13.2853 65.8307L12.2476 67.2056C11.5548 68.1261 10.5792 68.5239 9.61686 68.267C8.27194 67.9081 7.74041 66.7353 8.16827 65.0859C8.61392 63.4163 9.73184 62.6714 11.2043 63.0644L11.9115 63.2532L11.6423 64.2619L11.051 64.1041C10.0771 63.8441 9.34804 64.2954 9.07261 65.3272C8.82115 66.3158 9.13018 67.0193 9.89538 67.2236C10.4403 67.369 11.0565 67.0615 11.5591 66.3884L12.5194 65.117C13.2478 64.1564 14.2296 63.7354 15.1571 63.9829C16.5484 64.3543 17.0993 65.5943 16.6319 67.345Z" fill="#17A500"/>
<path d="M19.0457 59.4353L18.6354 60.3954L10.9113 57.0943L11.9629 54.6336C12.675 52.9673 13.8546 52.3753 15.256 52.9742C16.5801 53.5401 17.0004 54.6332 16.4219 56.0172L16.8633 56.2058C17.1557 55.5217 17.8328 55.1586 18.7483 55.1845L20.8062 55.2549L20.4039 56.2574L18.5398 56.1915C17.5912 56.1515 16.8841 56.554 16.5634 57.3044L16.1767 58.2092L19.0457 59.4353ZM12.1822 56.5021L15.3161 57.8414L16.0046 56.2303C16.4148 55.2703 16.0564 54.4907 14.9971 54.038C14.0371 53.6277 13.2622 53.9752 12.8236 55.0014L12.1822 56.5021Z" fill="#17A500"/>
<path d="M24.0848 49.2204L21.7374 53.4759L14.3822 49.4186L16.7297 45.1631L17.5493 45.6152L15.7061 48.9565L18.1963 50.3302L19.9352 47.178L20.7547 47.6301L19.0159 50.7823L21.4221 52.1096L23.2653 48.7683L24.0848 49.2204Z" fill="#17A500"/>
<path d="M26.5845 45.4448L25.9953 46.3066L19.8335 42.0943L18.3368 44.2837L17.5641 43.7554L21.1398 38.5248L21.9125 39.0531L20.4227 41.2325L26.5845 45.4448Z" fill="#17A500"/>
<path d="M28.8822 42.2429L28.1802 43.0794L23.6046 35.4645L24.6459 34.2235L32.9396 37.4077L32.2376 38.2442L30.7569 37.6753L28.0648 40.8834L28.8822 42.2429ZM25.9703 37.387L27.5561 40.0336L29.8316 37.3218L26.9499 36.2196C26.1213 35.9002 25.543 35.6186 24.9927 35.2664L24.6918 35.6249C25.1342 36.1058 25.5119 36.6264 25.9703 37.387Z" fill="#17A500"/>
<path d="M34.6286 35.7963L33.8931 36.5372L27.9318 30.6192L28.6674 29.8783L34.6286 35.7963Z" fill="#17A500"/>
<path d="M31.7769 26.9057L36.678 32.5351L39.7371 29.8718L40.3517 30.5777L36.5052 33.9266L30.9895 27.5912L31.7769 26.9057Z" fill="#17A500"/>
<path d="M45.7051 26.943C44.2344 27.9171 42.8837 27.7466 42.0421 26.476L41.6379 25.8658L42.5083 25.2893L42.8462 25.7995C43.4029 26.6399 44.2678 26.7723 45.1882 26.1627C46.1286 25.5398 46.4006 24.7551 45.9301 24.0448C45.6319 23.5946 44.9901 23.4296 44.2041 23.5903L42.5157 23.9314C41.3868 24.161 40.3927 23.8118 39.8427 22.9814C39.074 21.8209 39.4538 20.5906 40.8678 19.6397C42.3085 18.6855 43.6392 18.8692 44.4808 20.1398L44.885 20.7501L44.0146 21.3266L43.6766 20.8163C43.12 19.9759 42.2751 19.8303 41.3847 20.42C40.5409 20.9933 40.3057 21.7248 40.7431 22.3851C41.0545 22.8553 41.7196 23.0337 42.5422 22.8631L44.1041 22.5483C45.2863 22.3122 46.3004 22.6481 46.8305 23.4484C47.6257 24.649 47.2158 25.9424 45.7051 26.943Z" fill="#17A500"/>
<path d="M51.8302 23.1012L50.9087 23.5919L47.4004 17.0038L45.0596 18.2503L44.6197 17.4241L50.2122 14.446L50.6521 15.2722L48.3219 16.5131L51.8302 23.1012Z" fill="#17A500"/>
<path d="M58.447 20.247C56.1861 21.1538 54.1418 20.1508 53.1367 17.6448C52.136 15.15 52.925 13.0235 55.186 12.1166C57.4469 11.2098 59.4867 12.2017 60.4874 14.6965C61.4925 17.2024 60.7079 19.3401 58.447 20.247ZM58.0986 19.3783C59.7247 18.726 60.2535 17.0788 59.4628 15.1075C58.6765 13.1473 57.1605 12.3331 55.5344 12.9853C53.9083 13.6376 53.3751 15.2737 54.1613 17.2339C54.952 19.2052 56.4725 20.0305 58.0986 19.3783Z" fill="#17A500"/>
<path d="M64.0842 18.0529L63.0776 18.3298L60.8498 10.2306L63.43 9.52092C65.1771 9.04035 66.3749 9.5945 66.7791 11.0639C67.161 12.4524 66.5675 13.4619 65.1244 13.8713L65.2517 14.3341C65.9691 14.1368 66.6749 14.4405 67.2249 15.1729L68.4514 16.8268L67.4165 17.1363L66.3071 15.6369C65.7476 14.8698 64.9923 14.5673 64.2055 14.7837L63.2568 15.0447L64.0842 18.0529ZM62.1046 10.8562L63.0085 14.1422L64.6978 13.6775C65.7044 13.4006 66.0911 12.6347 65.7855 11.5239C65.5087 10.5173 64.7542 10.1274 63.6782 10.4234L62.1046 10.8562Z" fill="#17A500"/>
<path d="M75.2941 15.6164L70.5006 16.4171L69.1166 8.13193L73.9101 7.33119L74.0644 8.2544L70.3005 8.88313L70.7691 11.6883L74.3199 11.0951L74.4741 12.0183L70.9233 12.6115L71.3761 15.3219L75.1399 14.6932L75.2941 15.6164Z" fill="#17A500"/>
<path d="M79.8493 15.1566L78.7577 15.1861L81.4217 6.71108L83.0411 6.66731L86.159 14.9861L85.0674 15.0156L84.511 13.5301L80.3246 13.6432L79.8493 15.1566ZM81.552 9.75667L80.6232 12.6988L84.1619 12.6032L83.0755 9.7155C82.7649 8.88358 82.5921 8.26403 82.4906 7.61853L82.0228 7.63117C81.9563 8.28121 81.8172 8.90919 81.552 9.75667Z" fill="#17A500"/>
<path d="M89.8228 15.4277C88.0641 15.2917 87.1036 14.3268 87.221 12.8074L87.2774 12.0775L88.3183 12.158L88.2712 12.7682C88.1935 13.7732 88.7942 14.4094 89.895 14.4945C91.0196 14.5814 91.7165 14.1298 91.7821 13.2803C91.8238 12.7419 91.419 12.2171 90.7003 11.8607L89.159 11.0916C88.1275 10.5786 87.5581 9.69208 87.6349 8.69904C87.7422 7.31118 88.7981 6.57437 90.498 6.69373C92.2208 6.82691 93.1574 7.78996 93.0399 9.30942L92.9835 10.0392L91.9426 9.95879L91.9898 9.34861C92.0675 8.3436 91.4906 7.70926 90.4258 7.62695C89.4079 7.5603 88.7727 7.99263 88.7117 8.78228C88.6682 9.3446 89.0831 9.89421 89.8367 10.2654L91.2621 10.9774C92.3396 11.518 92.9329 12.4064 92.8589 13.3635C92.748 14.7993 91.6294 15.5673 89.8228 15.4277Z" fill="#17A500"/>
<path d="M95.3026 15.866L94.2704 15.7098L95.5272 7.40439L96.5594 7.5606L95.3026 15.866Z" fill="#17A500"/>
<path d="M100.198 16.9763C98.4795 16.58 97.6734 15.4828 98.0158 13.9977L98.1803 13.2845L99.1976 13.519L99.0601 14.1154C98.8336 15.0976 99.3329 15.8162 100.409 16.0643C101.508 16.3177 102.264 15.9749 102.456 15.1447C102.577 14.6185 102.255 14.0393 101.597 13.5798L100.188 12.5898C99.2441 11.9288 98.8131 10.9674 99.0369 9.99688C99.3497 8.64047 100.504 8.06913 102.167 8.44031C103.85 8.82858 104.633 9.92037 104.291 11.4054L104.126 12.1187L103.109 11.8841L103.246 11.2878C103.473 10.3055 102.997 9.59235 101.956 9.35238C100.96 9.13489 100.267 9.4678 100.089 10.2395C99.9626 10.7891 100.291 11.3944 100.981 11.8737L102.284 12.79C103.269 13.4851 103.724 14.4519 103.508 15.3873C103.184 16.7905 101.964 17.3835 100.198 16.9763Z" fill="#17A500"/>
<path d="M108.003 19.0122L107.028 18.6381L110.038 10.7959L112.536 11.7548C114.228 12.404 114.864 13.5606 114.318 14.9835C113.802 16.3278 112.725 16.7887 111.32 16.2624L111.148 16.7105C111.843 16.9771 112.231 17.6402 112.239 18.556L112.246 20.6151L111.229 20.2506L111.225 18.3853C111.23 17.4359 110.801 16.7444 110.039 16.452L109.121 16.0994L108.003 19.0122ZM110.677 12.0438L109.456 15.2255L111.092 15.8533C112.066 16.2274 112.832 15.84 113.245 14.7645C113.619 13.7898 113.243 13.0285 112.201 12.6286L110.677 12.0438Z" fill="#17A500"/>
<path d="M118.347 23.6127L114.008 21.4242L117.791 13.9241L122.13 16.1126L121.709 16.9483L118.301 15.2299L117.021 17.7693L120.235 19.3904L119.813 20.2261L116.599 18.605L115.362 21.0586L118.769 22.777L118.347 23.6127Z" fill="#17A500"/>
<path d="M122.375 26.0355L121.492 25.4783L125.476 19.1663L123.233 17.7509L123.732 16.9593L129.091 20.341L128.591 21.1325L126.358 19.7235L122.375 26.0355Z" fill="#17A500"/>
<path d="M125.533 28.0931L124.671 27.4221L132.115 22.5721L133.393 23.5676L130.513 31.9717L129.651 31.3007L130.166 29.8002L126.862 27.2268L125.533 28.0931ZM130.28 25.0063L127.693 26.6874L130.485 28.8627L131.482 25.9428C131.771 25.1031 132.031 24.5149 132.363 23.9521L131.994 23.6645C131.53 24.1241 131.023 24.5206 130.28 25.0063Z" fill="#17A500"/>
<path d="M132.153 33.532L131.383 32.8267L137.058 26.6337L137.828 27.3391L132.153 33.532Z" fill="#17A500"/>
<path d="M141.21 30.6068L135.762 35.7092L138.535 38.6695L137.852 39.3094L134.365 35.5871L140.496 29.8448L141.21 30.6068Z" fill="#17A500"/>
<path d="M141.539 44.3173C140.512 42.8833 140.633 41.5272 141.872 40.6397L142.467 40.2135L143.075 41.0622L142.578 41.4186C141.758 42.0056 141.657 42.8748 142.3 43.7723C142.957 44.6893 143.751 44.9323 144.444 44.4362C144.883 44.1217 145.024 43.4743 144.835 42.6947L144.432 41.0199C144.162 39.9001 144.474 38.8939 145.284 38.3139C146.415 37.5033 147.659 37.8379 148.661 39.2162C149.667 40.6209 149.532 41.9575 148.293 42.845L147.698 43.2712L147.09 42.4225L147.588 42.0661C148.407 41.4791 148.522 40.6294 147.9 39.7612C147.296 38.939 146.557 38.7307 145.913 39.1919C145.454 39.5204 145.3 40.1915 145.501 41.0073L145.873 42.5567C146.152 43.7295 145.853 44.7552 145.073 45.3142C143.902 46.1527 142.595 45.7904 141.539 44.3173Z" fill="#17A500"/>
<path d="M145.704 50.4141L145.18 49.5113L151.634 45.7624L150.302 43.4692L151.112 42.9991L154.294 48.4779L153.485 48.948L152.159 46.6652L145.704 50.4141Z" fill="#17A500"/>
<path d="M148.8 56.8808C147.81 54.6553 148.736 52.5749 151.203 51.4769C153.658 50.3838 155.813 51.0929 156.803 53.3184C157.794 55.5439 156.879 57.6194 154.423 58.7125C151.957 59.8105 149.791 59.1063 148.8 56.8808ZM149.656 56.5001C150.368 58.1007 152.034 58.5676 153.974 57.7039C155.904 56.845 156.661 55.2996 155.948 53.6991C155.236 52.0985 153.581 51.6267 151.651 52.4855C149.711 53.3493 148.943 54.8996 149.656 56.5001Z" fill="#17A500"/>
<path d="M151.317 62.7114L151.006 61.7148L159.025 59.2124L159.822 61.7669C160.362 63.4966 159.849 64.7127 158.394 65.1667C157.019 65.5957 155.99 65.0369 155.532 63.6086L155.073 63.7516C155.295 64.4618 155.016 65.1775 154.302 65.7521L152.691 67.0343L152.347 66.0105L153.807 64.8506C154.555 64.2653 154.832 63.5002 154.588 62.7212L154.295 61.7819L151.317 62.7114ZM158.442 60.4879L155.189 61.5031L155.711 63.1755C156.022 64.1721 156.8 64.5325 157.9 64.1893C158.897 63.8783 159.261 63.1111 158.928 62.0458L158.442 60.4879Z" fill="#17A500"/>
<path d="M154.062 73.3874L153.079 68.6279L161.305 66.9282L162.289 71.6877L161.372 71.8771L160.6 68.14L157.815 68.7155L158.543 72.241L157.626 72.4304L156.898 68.9049L154.207 69.4609L154.979 73.198L154.062 73.3874Z" fill="#17A500"/>
<path d="M154.755 78.2175L154.688 77.1275L163.251 79.4958L163.35 81.1127L155.145 84.5174L155.078 83.4275L156.543 82.82L156.284 78.6399L154.755 78.2175ZM160.211 79.7318L157.239 78.9056L157.457 82.4388L160.305 81.2529C161.126 80.9136 161.739 80.7194 162.381 80.5956L162.352 80.1285C161.7 80.0846 161.067 79.9674 160.211 79.7318Z" fill="#17A500"/>
<path d="M154.839 88.3165C154.914 86.5541 155.845 85.5607 157.368 85.6254L158.099 85.6565L158.055 86.6995L157.443 86.6736C156.436 86.6308 155.821 87.2533 155.774 88.3563C155.727 89.4833 156.202 90.164 157.053 90.2002C157.593 90.2231 158.103 89.8004 158.435 89.0698L159.15 87.5027C159.627 86.454 160.493 85.8543 161.488 85.8965C162.879 85.9556 163.652 86.9853 163.591 88.6883C163.518 90.4147 162.588 91.3842 161.065 91.3195L160.334 91.2884L160.378 90.2454L160.99 90.2713C161.997 90.3141 162.611 89.7156 162.656 88.6486C162.688 87.629 162.233 87.0092 161.442 86.9755C160.879 86.9516 160.344 87.3853 159.999 88.1514L159.337 89.6006C158.834 90.6962 157.967 91.32 157.007 91.2792C155.569 91.2181 154.762 90.1269 154.839 88.3165Z" fill="#17A500"/>
<path d="M154.589 93.8542L154.709 92.8172L163.053 93.7863L162.933 94.8234L154.589 93.8542Z" fill="#17A500"/>
<path d="M153.714 98.453C154.044 96.7202 155.11 95.8729 156.607 96.1584L157.326 96.2956L157.13 97.3211L156.529 97.2064C155.539 97.0175 154.84 97.5439 154.633 98.6283C154.422 99.7364 154.793 100.479 155.63 100.639C156.16 100.74 156.727 100.396 157.161 99.7213L158.097 98.275C158.721 97.3069 159.665 96.8395 160.644 97.0261C162.011 97.2869 162.626 98.4182 162.318 100.094C161.995 101.792 160.934 102.615 159.437 102.33L158.718 102.193L158.913 101.167L159.514 101.282C160.504 101.471 161.199 100.968 161.399 99.9189C161.578 98.9147 161.219 98.2354 160.441 98.087C159.887 97.9813 159.295 98.3326 158.842 99.0403L157.976 100.378C157.319 101.389 156.371 101.879 155.428 101.7C154.013 101.43 153.374 100.233 153.714 98.453Z" fill="#17A500"/>
<path d="M151.992 106.342L152.329 105.354L160.279 108.067L159.415 110.6C158.829 112.315 157.698 112.994 156.255 112.501C154.892 112.036 154.391 110.978 154.865 109.554L154.41 109.399C154.17 110.103 153.522 110.516 152.607 110.559L150.55 110.643L150.876 109.613L152.74 109.539C153.689 109.508 154.363 109.054 154.627 108.281L154.945 107.35L151.992 106.342ZM159.056 108.753L155.831 107.652L155.265 109.31C154.928 110.299 155.343 111.049 156.434 111.421C157.422 111.758 158.168 111.354 158.529 110.298L159.056 108.753Z" fill="#17A500"/>
<path d="M147.775 116.906L149.801 112.488L157.436 115.99L155.41 120.407L154.56 120.017L156.15 116.548L153.565 115.363L152.064 118.635L151.214 118.245L152.714 114.973L150.216 113.827L148.626 117.296L147.775 116.906Z" fill="#17A500"/>
<path d="M145.461 121.116L145.985 120.214L152.439 123.963L153.771 121.669L154.581 122.139L151.398 127.618L150.589 127.148L151.915 124.865L145.461 121.116Z" fill="#17A500"/>
<path d="M143.518 124.358L144.157 123.472L149.275 130.734L148.327 132.047L139.824 129.476L140.463 128.59L141.981 129.05L144.432 125.654L143.518 124.358ZM146.776 128.989L145.002 126.465L142.93 129.335L145.884 130.224C146.734 130.482 147.331 130.721 147.905 131.032L148.179 130.653C147.703 130.206 147.289 129.714 146.776 128.989Z" fill="#17A500"/>
<path d="M138.305 131.198L138.981 130.404L145.377 135.85L144.7 136.645L138.305 131.198Z" fill="#17A500"/>
<path d="M141.541 140.16L136.244 134.901L133.387 137.779L132.722 137.12L136.315 133.501L142.277 139.419L141.541 140.16Z" fill="#17A500"/>
<path d="M127.824 141.006C129.22 139.927 130.579 139.998 131.511 141.204L131.959 141.783L131.133 142.422L130.759 141.938C130.142 141.14 129.27 141.071 128.397 141.746C127.504 142.436 127.29 143.239 127.811 143.913C128.142 144.34 128.794 144.458 129.566 144.24L131.225 143.777C132.334 143.465 133.351 143.741 133.96 144.529C134.811 145.63 134.523 146.885 133.182 147.936C131.815 148.993 130.474 148.907 129.542 147.702L129.094 147.122L129.92 146.484L130.294 146.968C130.911 147.766 131.764 147.849 132.609 147.196C133.409 146.563 133.59 145.816 133.106 145.189C132.761 144.743 132.084 144.614 131.276 144.844L129.742 145.272C128.58 145.594 127.544 145.333 126.957 144.573C126.076 143.434 126.39 142.114 127.824 141.006Z" fill="#17A500"/>
<path d="M121.901 145.374L122.784 144.817L126.768 151.129L129.01 149.713L129.51 150.505L124.152 153.887L123.652 153.095L125.885 151.686L121.901 145.374Z" fill="#17A500"/>
<path d="M115.55 148.703C117.737 147.63 119.85 148.478 121.039 150.903C122.223 153.316 121.594 155.495 119.407 156.568C117.22 157.641 115.112 156.803 113.928 154.39C112.739 151.966 113.363 149.776 115.55 148.703ZM115.962 149.543C114.389 150.315 113.984 151.997 114.919 153.904C115.849 155.8 117.422 156.499 118.995 155.728C120.568 154.956 120.978 153.285 120.048 151.389C119.113 149.482 117.535 148.772 115.962 149.543Z" fill="#17A500"/>
<path d="M109.89 151.401L110.874 151.053L113.677 158.972L111.154 159.864C109.446 160.469 108.212 160.002 107.703 158.566C107.223 157.208 107.742 156.159 109.152 155.647L108.992 155.194C108.291 155.443 107.565 155.19 106.964 154.499L105.622 152.937L106.632 152.554L107.846 153.971C108.459 154.696 109.234 154.943 110.003 154.671L110.931 154.343L109.89 151.401ZM112.381 158.438L111.243 155.225L109.592 155.809C108.608 156.158 108.277 156.95 108.661 158.036C109.01 159.02 109.79 159.354 110.842 158.982L112.381 158.438Z" fill="#17A500"/>
<path d="M98.8907 154.644L103.614 153.498L105.594 161.661L100.871 162.807L100.651 161.898L104.359 160.998L103.689 158.234L100.19 159.083L99.9693 158.174L103.468 157.325L102.82 154.654L99.1114 155.554L98.8907 154.644Z" fill="#17A500"/>
<path d="M94.5187 155.416L95.6052 155.307L93.5684 163.954L91.9565 164.116L88.2384 156.048L89.3249 155.939L89.9884 157.379L94.1554 156.96L94.5187 155.416ZM93.2156 160.926L93.9267 157.924L90.4045 158.278L91.6993 161.079C92.0699 161.886 92.2876 162.491 92.436 163.127L92.9016 163.081C92.9204 162.427 93.0131 161.791 93.2156 160.926Z" fill="#17A500"/>
</svg>
