<svg width="25" height="24" viewBox="0 0 25 24" fill="none" xmlns="http://www.w3.org/2000/svg">
<path d="M13.9263 12.0123L19.2193 6.71929C19.3148 6.62704 19.391 6.5167 19.4434 6.39469C19.4958 6.27269 19.5234 6.14147 19.5245 6.00869C19.5257 5.87591 19.5004 5.74423 19.4501 5.62133C19.3998 5.49844 19.3256 5.38679 19.2317 5.29289C19.1378 5.199 19.0261 5.12475 18.9032 5.07447C18.7803 5.02419 18.6487 4.99888 18.5159 5.00004C18.3831 5.00119 18.2519 5.02878 18.1299 5.08119C18.0079 5.1336 17.8975 5.20978 17.8053 5.30529L12.5123 10.5983L7.21929 5.30529C7.03069 5.12313 6.77808 5.02234 6.51589 5.02461C6.25369 5.02689 6.00288 5.13206 5.81747 5.31747C5.63206 5.50288 5.52689 5.75369 5.52461 6.01589C5.52234 6.27808 5.62313 6.53069 5.80529 6.71929L11.0983 12.0123L5.80529 17.3053C5.70978 17.3975 5.6336 17.5079 5.58119 17.6299C5.52878 17.7519 5.50119 17.8831 5.50004 18.0159C5.49888 18.1487 5.52419 18.2803 5.57447 18.4032C5.62475 18.5261 5.699 18.6378 5.79289 18.7317C5.88679 18.8256 5.99844 18.8998 6.12133 18.9501C6.24423 19.0004 6.37591 19.0257 6.50869 19.0245C6.64147 19.0234 6.77269 18.9958 6.89469 18.9434C7.0167 18.891 7.12704 18.8148 7.21929 18.7193L12.5123 13.4263L17.8053 18.7193C17.9939 18.9014 18.2465 19.0022 18.5087 19C18.7709 18.9977 19.0217 18.8925 19.2071 18.7071C19.3925 18.5217 19.4977 18.2709 19.5 18.0087C19.5022 17.7465 19.4014 17.4939 19.2193 17.3053L13.9263 12.0123Z" fill="#0B0B0B"/>
</svg>
